<?xml version="1.0" encoding="UTF-8"?>
<svg id="Ebene_1" data-name="Ebene 1" xmlns="http://www.w3.org/2000/svg" viewBox="0 0 300.68 254.64">
  <defs>
    <style>
      .cls-1 {
        fill: #fff;
      }
    </style>
  </defs>
  <g>
    <path class="cls-1" d="M149.97,210.76c58.2,0,105.38-47.18,105.38-105.38S208.17,0,149.97,0,44.59,47.18,44.59,105.38s47.18,105.38,105.38,105.38ZM102.88,192.87c-2.88,0-5.22-2.34-5.22-5.22s2.34-5.22,5.22-5.22,5.22,2.34,5.22,5.22-2.34,5.22-5.22,5.22ZM150.7,205.81c-2.88,0-5.22-2.34-5.22-5.22s2.34-5.22,5.22-5.22,5.22,2.34,5.22,5.22-2.34,5.22-5.22,5.22ZM198.65,192.87c-2.88,0-5.22-2.34-5.22-5.22s2.34-5.22,5.22-5.22,5.22,2.34,5.22,5.22-2.34,5.22-5.22,5.22ZM233.58,157.64c-2.88,0-5.22-2.34-5.22-5.22s2.34-5.22,5.22-5.22,5.22,2.34,5.22,5.22-2.34,5.22-5.22,5.22ZM246.31,99.76c2.88,0,5.22,2.34,5.22,5.22s-2.34,5.22-5.22,5.22-5.22-2.34-5.22-5.22,2.34-5.22,5.22-5.22ZM233.58,51.82c2.88,0,5.22,2.34,5.22,5.22s-2.34,5.22-5.22,5.22-5.22-2.34-5.22-5.22,2.34-5.22,5.22-5.22ZM198.65,16.91c2.88,0,5.22,2.34,5.22,5.22s-2.34,5.22-5.22,5.22-5.22-2.34-5.22-5.22,2.34-5.22,5.22-5.22ZM150.7,4.26c2.88,0,5.22,2.34,5.22,5.22s-2.34,5.22-5.22,5.22-5.22-2.34-5.22-5.22,2.34-5.22,5.22-5.22ZM102.88,16.91c2.88,0,5.22,2.34,5.22,5.22s-2.34,5.22-5.22,5.22-5.22-2.34-5.22-5.22,2.34-5.22,5.22-5.22ZM150.7,19.48c47.22,0,85.51,38.28,85.51,85.51s-38.28,85.51-85.51,85.51-85.51-38.28-85.51-85.51S103.47,19.48,150.7,19.48h0ZM67.87,51.82c2.88,0,5.22,2.34,5.22,5.22s-2.34,5.22-5.22,5.22-5.22-2.34-5.22-5.22,2.34-5.22,5.22-5.22ZM55.05,110.2c-2.88,0-5.22-2.34-5.22-5.22s2.34-5.22,5.22-5.22,5.22,2.34,5.22,5.22-2.34,5.22-5.22,5.22ZM67.87,157.64c-2.88,0-5.22-2.34-5.22-5.22s2.34-5.22,5.22-5.22,5.22,2.34,5.22,5.22-2.34,5.22-5.22,5.22Z"/>
    <polygon class="cls-1" points="8.41 141.86 28.16 135.03 25.58 128.44 0 137.86 9.33 164.03 15.5 161.61 8.41 141.86"/>
    <polygon class="cls-1" points="21.33 172.61 24.75 170.69 36.08 188.28 41.75 184.69 30.16 167.19 33.58 164.94 44.75 182.78 50.66 179.19 35.66 156.03 12.41 170.94 27.08 193.86 32.66 190.44 21.33 172.61"/>
    <polygon class="cls-1" points="66.45 195.08 58.91 202.53 48.83 192.36 55.97 184.81 51.41 180.19 39.5 192.11 54.66 207.11 51.75 209.78 37 194.99 32.33 199.61 51.5 219.19 70.91 199.69 66.45 195.08"/>
    <polygon class="cls-1" points="90.13 211.64 76.8 227.64 69.88 223.47 77.88 204.31 71.8 200.59 61.38 226.06 78.22 236.56 96.47 215.39 90.13 211.64"/>
    <path class="cls-1" d="M89.05,241.97l5.92,2.25,1.83-5.58,14.17,5.17-1.83,5.08,6.08,1.92,8.92-26.67-26.47-8.42-8.61,26.25h0ZM101.88,224.14l13.58,4.17-2.92,8.75-13.5-4.25,2.83-8.67h0Z"/>
    <polygon class="cls-1" points="176.38 224.81 169.05 224.81 163.55 236.56 154.8 236.56 154.72 226.14 147.55 227.06 150.05 254.64 156.97 254.64 155.92 243.39 164.22 243.31 171.13 252.89 179.55 252.81 169.55 239.22 176.38 224.81"/>
    <polygon class="cls-1" points="190.63 241.72 189.13 238.14 209.13 231.39 206.95 225.22 187.05 231.89 185.63 227.72 205.46 221.28 203.47 215.47 177.47 224.14 186.3 250.81 212.72 241.81 210.36 235.2 190.63 241.72"/>
    <polygon class="cls-1" points="222.63 203.89 230.63 216.31 212.72 215.47 209.97 211.14 204.63 214.56 219.22 238.47 225.22 234.72 217.47 222.39 234.55 222.81 237.38 227.47 243.13 223.81 228.13 200.06 222.63 203.89"/>
    <polygon class="cls-1" points="244.3 184.56 254.88 195.14 237.22 198.14 234.13 194.64 229.41 199.41 248.8 219.72 253.97 214.64 243.13 203.89 260.88 201.39 263.97 204.56 268.8 200.06 249.18 179.97 244.3 184.56"/>
    <polygon class="cls-1" points="271.23 184.93 267.73 182.37 278.9 164.82 273.56 161.43 262.4 179.21 258.95 176.71 270.29 159.49 264.68 155.71 250.12 179 273.29 193.99 288.18 170.65 282.51 167.16 271.23 184.93"/>
    <polygon class="cls-1" points="294.02 135.6 287.19 155.38 267.18 148.32 265.23 154.54 291.62 163.99 300.68 137.93 294.02 135.6"/>
  </g>
  <g>
    <path class="cls-1" d="M221.94,120.21v-.19h-.04c.19-4.75-.28-9.75-2.27-14.1-1.27-2.27-3.79-5.74-5.69-8.7-.67-1.12-1.57-2.09-.98-3.3.69-1.21,2.06-1.94,2.9-3.04,1.03-1.21,1.42-2.97,1.6-4.73.53-2.93-2.04-4.91-3.02-7.31-.98-3.95-.87-9.07-1.96-12.64-.65-2.94-3.74-5.64-2.08-8.73,1.3-2.83,3.13-5.53,2.06-8.65-1.74-7.24-4.79-18.06-7.18-24.6-.74-1.73-3.85-7.43-4.27-4.57-.2,4.38.19,9.15.09,13.61-.34,3.33-3.48,5.8-4.86,8.75-.43.65-.91,1.51-1.75,1.47-7.97-1.05-18.14-3.49-26.55-4.21-4.94.65-10.51,2.9-15.18,4.55-1.06.49-2.47.43-3.5.03-4.57-1.34-9.41-3.21-14.02-4.31-8.67-.08-18.51,1.28-26.96,3.37-1.19.39-2.57.35-3.31-.78-2.24-4.06-5.07-8.66-5.87-13.28-.3-3.5.32-7.95-.29-11.78-.99-2.42-5.51,9.71-6.41,10.77-1.58,2.62-1.66,5.3-1.83,8.28-.29,4.82-.93,9.86-1.71,14.52-.25,2.5,1.43,5.05,2.24,7.44.79,2.73-1.26,5.7-1.7,8.2-.83,3.5-1.29,7.81-1.81,11.16-.22,2.23-2.06,3.72-3,5.62-.78,1.81-.58,4.37.07,6.31.6,1.63,2.07,2.81,3,4.24,1.1,1.59.13,2.8-.83,4.3-1.9,3.12-4.27,6.4-5.7,9.03-1.93,5.84-1.87,12.22-1.49,18.31.24,1.12.94,2.01,1.58,2.94,1.97,2.85,5.17,7.49,7.38,10.72,1.12,1.61,2.17,2.98,2.74,4.71,1.51,4.18,3.93,11.34,5.04,14.5.53,1.77,2.19,2.92,3.57,4.08,3.97,3.35,9.13,7.47,13.1,11.01,1.97,1.76,2.58,5.55,5.34,6.39,1.61.25,3.57-1.7,5.05-1.27,2.53,1.04,3.86,4.29,6.2,5.53,2.81,1.63,6.23,2.53,9.49,2.92,7.77.98,15.68.74,23.29-.21,3.04-.1,5.73-1.04,8.49-2.26,2.82-1.09,4.08-4.77,6.8-6.04,1.27-.38,2.77,1.27,4.23,1.29,2.79-.06,3.42-3.73,5.18-5.3,4.59-4.23,11.31-8.98,15.95-13.3.91-.79,1.54-1.67,2.02-2.81,1.44-3.34,3.18-7.24,4.28-10.64.77-2.32.24-5.04,1.96-6.97,2.4-3.39,7.76-10.92,9.7-13.68,1.36-1.86.8-4.49.91-6.65ZM118.75,55.38l-.06.04h0c-3.41,2.11-14.5,9.3-15.54,10.1-.73,2.75-2.23,10.98-2.69,12.96-.16.64-.55.71-1.18,1.21-1.17.75-3.21,2.45-4.21,2.89.12-.34,2.1-2.9,2.69-3.98.39-.76.37-1.6.51-2.54.37-3.47,2.22-12.19,2.84-13.15,5.18-3.86,17.35-7.7,17.64-7.53ZM122.72,96.26s-11.3-2.67-15.14-9l15.14,9ZM111.59,114.36c.71.27,1.18.42,1.1.64-1.58,1.44-5.87.02-6.6-.45-.59-.32-.6-.86-.99-1.49-1.72-3.39-6.37-12.74-7.07-14.01-.34-.45-1.38-.41-1.53-.99-.07-.33.2-.75.4-1.08.88-1.51,1.14-1.89,2.86-1.35,1.22.24,2.52,1.43,1.69,2.64-.19.35-.43.42-.38.72.45.87,4.14,7.76,5.9,11.51l.09.17h-.02c.71,1.7,2.92,3.16,4.55,3.69ZM94.07,34.3c.39-1.21,2.55-7.99,2.57-7.97h.02c0,.93-.28,5.92-.3,6.88,0,.46.2.57.46,1.02,1.45,2.24,6.22,9.56,6.83,10.53.11.27-.1.29-.38.49-.93.55-3.04,1.81-3.99,2.37-.57.33-.75.46-.84.31-.29-.75-2.72-8.12-3.87-11.51-.21-.9-.67-1.35-.5-2.12ZM90.47,127.38l-.04-.02h0c-.27-2.22.17-6.93-.19-8.28-.57-1.33-1.89-2.23-2.73-3.36-.34-.52-.62-.88-.61-1.43.07-.99.38-4.99.48-6.17.04-.53.06-.76.11-.62.58,1.87,1.07,6.32,2.96,8.32,1.66,2.4,4.02,5.02,4.53,6.01.12.39-.2,1.28-1.02.98-.42-.14-.89-.49-1.16-.68-.29-.2-.39-.23-.39-.03.05.55.3,2.78-.32,3.88-.43.77-.99,1.26-1.62,1.4ZM117.01,176.48l-.05.05h-.01c-.4.28-.68-.1-.84-.45-.46-1.19-2.06-5.59-2.98-7.82-.48-1.19-1.01-1.94-2.25-2.99-1.64-1.61-4.02-2.17-4.46-4.27-2.35-7.21-2.41-19.98-3.95-23.37-1.91-2.32-5.75-4.78-8.32-6.67-1.69-1.15-2.44-1.57-.57-1.31,3.3.54,9.87,4.67,11.24,5.55.39.23.42.39.48.87.05.38.13.96.23,1.7.57,4.22,1.78,13.3,2.07,15.46.27,1.6.8,3.02,1.5,4.62.27.59.61,1.24.96,1.8,1.8,2.95,3.19,2.76,4.01,4.45,1.33,3.14,2.91,9.91,3.07,11.95,0,.19-.05.33-.13.43ZM124.8,101.59l-.05.08h-.01c-.06.07-.14.11-.24.11-.72-.04-3.78-.67-4.72-.79-1.28-.07-2.94,2.15-3.92,2.4-.37.12-1.79-.06-2.59-.08-1.5-.17-3.26-.03-4.63-.4-.88-.84-3.74-4.48-4.68-5.56-.39-.5-.14-.58.43-1.39.3-.39.68-.89,1.07-1.42.95-1.24,1.69-2.33,2.36-3.24.06-.06.11-.09.17-.08,1.01.46,11.25,5.85,14.39,7.47,1.31.75,2.11.95,2.42,1.39.09.28.14,1.1,0,1.51ZM215.14,103.47l-.03.04c-.43.28-1.47,1.11-1.96,1.28-1.35-1.05-6.18-5.27-6.89-5.91.22-.41,1.14-1.14,1.63-1.67.72-.69,1.29-1.28,1.83-1.77.05-.03.08-.03.12,0,.26.41,4.3,6.34,5.3,8.03ZM198.58,90.5c-2.1-2.14-5.47-4.56-7.63-6.61l-.03-.05h0c-.29-1.45-1.68-14.74-1.69-14.79.21.31,2.99,9.59,4.25,12.65,1.16,1.46,4.75,6.16,6.23,7.88.72.55,1.68.31,2.72.47,1.73.13,4.31.61,5.9,1.11,1.31.41,2.07.73,2.21.86.17.15-1.48,1.93-1.92,2.51-1.35,1.49-2.21,2.83-3.58,3.57-1.61.56-3.71.47-5.12-.53-.85-.71-1.26-1.36-1.22-2.48-.07-1.2.14-3.6-.12-4.59ZM174.84,100.07v.15h.01c.04.92-.92,1.09-1.71,1.2-.81.07-1.55-.13-2.23-.54-2.76-1.65-7.37-8.11-8.23-9.31-.47-1-.12-2.09-.22-3.37.06-1.52-.14-4.41.11-5.6,1.73-2.08,4.45-4.67,6.34-6.73.58-.61,1.05-1.1,1.25-1.3.17-.16.14-.06-.09.33-.44.87-1.41,2.11-1.64,3.11-.31,2.09-.37,8.12,3.22,7.96,3.53-.27,4.2-5.67,4.88-8.01.41,1.71.43,4.91.57,6.88.11,1.36-.16,1.45-1.14,2.37-.88.91-2.17,1.9-2.42,3.13-.09,1.69.51,6.52,1.3,9.73ZM176.06,122.91c2.58,2.4,6.48,5.39,9.73,6.83.14.07.24.12.1.11-.9.16-6.97-2.27-8.81-3.72-1.48-.77-2.62-2.65-4.46-1.31-.62.35-1.31.76-1.7.97-.38.18-.5.32-.75.15-.92-1.01-8.26-8.23-10.45-12.23,4.19,2.88,10.17,7.01,15.27,8.43l.1.03h-.02c.44.15.5.32.99.74ZM176.44,100.22c.09-.19.05-.21.34-.52.85-.56,2.15-.87,3.1-1.34,3.7-1.41,9.6-4.99,12.2-7.13l.03.02h.01c1.48,1.51,4.52,4.36,5.95,6,.06.19-.22.38-.75.85-1.87,1.59-4.19,3.84-6.04,5.25-.2.13-1.34.08-1.96.09-1.23-.04-2.57.1-3.76-.07-.84-.17-2.72-2.07-3.7-1.99-1.07,0-4.28.54-5.29.34-.39-.32-.27-1.05-.13-1.5ZM178.47,95.33c3.77-2.3,9.39-5.13,13.46-7.44.31-.21-7.11,8.46-13.38,7.46l-.08-.02ZM211.1,80.3c1.08,3.12,1.83,5.24.47,6.36l-.12.09h-.01c-2.2,1.64-7.9,2.35-8.59,2.25-.22-.02-.06-.24.41-.88.73-1,2.13-2.87,2.78-3.8.57-.84.37-1.66.13-2.66-2.2-9.36-8.86-17.94-9.37-19.09,6.31,1.59,11.93,12.13,14.3,17.73ZM197.97,59.07c1.38-.81,7.96-4.35,9.07-5.08l.03-.03v-.02c-.02-1.8-2.95-22.51-3.24-25.28q0-.14.08.02s.27.66.5,1.3c2.16,5.38,6.28,18.89,6.22,21.97-.76,1.71-2.48,4.67-3.22,6.2-.5.93.02,1.87.34,2.81.82,2.24,1.03,5.01,1.06,5.9-.02.43-.2-.07-.45-.43-2.06-4.32-10.05-6.97-10.61-7.11-.08-.1.12-.18.22-.25ZM177.75,42.38c4.91.71,12.67,1.64,17.17,2.37l.07.04h-.01c.32.29,2.69,1.37,2.61,2-.07.44-.35.88-.55,1.26-.16.25-.22.48-.46.47-1.71-.52-20.33-6.33-20.28-6.33.4.04.8.11,1.45.19ZM170.25,43.35h.1c4.55.51,8.47,1.18,12.63,2.21,7.88,1.95,11.98,4.23,12.6,4.59.1.08.08.14.1.34,0,1.06.13,2.86-.14,3.78-.37.91-1.49,2.28-2.11,3.24-.44.58-.72,1.2-1.23,1.52-1.33.64-10.95,5.15-16.78,7.9-1.94.91-3.46,1.63-4.1,1.93-.56.28-.4.15.33-1.05,1.6-2.6,4.7-7.59,5.66-9.19.23-.47.13-.79-.13-1.32-2.04-3.72-7.54-8.92-8.38-9.51-.61-.37-1.49-.27-2.32-.33-6.07-.17-13.54.85-14.92,1.04,4.89-2.95,13.17-4.86,18.69-5.15ZM135.71,61.12c1.96,3.35,2.84,19.49,2.82,20.43l-.04-.03h0c-.27-.29-1.62-1.77-1.96-2.14-.22-.27-.29-.3-.31-.54-.05-1.65-.5-15.97-.54-17.62,0-.06,0-.09.02-.1ZM129.5,75.76l6.41,6.92v9.83l-9.64,7.91,8.31-8.77.17-8.97-5.25-6.92ZM125.57,135.41l-.02-.06h.01c-.04-.16,0-.31.09-.47.79-1.37,3.3-6.71,3.76-9.71,3.56-3.72,15.45-13.96,16.69-15.14-.95,1.05-9.07,9.94-12.64,13.86-.77.96-1.41,1.28-1.8,2.17,0,1.15-2.22,7.14-3.81,9-.09.16-.16.21-.15.29.23.16,1.5,1.37,1.68,8.86.09,5.51-.14,9.27-.79,16.69-.07.74-.16,1.8-.25,2.42-.05-2.93.47-23.78-2.77-27.91ZM149.14,159.52l-.05.03h0c-5.16,1.73-18.69,9.79-20.58,10.94-.06.04-.1.05-.08.02.09-.14,1.01-.97,1.42-1.33,6.73-6.08,15.09-10.63,16-11.42.95-3.48,2.21-8.51,3.17-12.14.14-.45.24-.78.28-.23-.12,2,.29,12.52-.16,14.13ZM149.36,143.25l-.09.07c-.75.76-1.55,2.02-2.39,2.82-1.05,1.15-2.69,1.14-3.29.92-.37-.14-.6-.37-.91-.64-1.79-1.59-6.39-5.47-8.09-7.68-.74-1.05-.83-2.68-.37-3.72.13-.36,1.15-.95,1.82-1.47,1.95-1.33,4.48-3.38,6.43-4.55,1.55-.19,8.86-.29,12.74-.47,1.15.04,1.68-.27,2.52.17,1.15.67,6.04,3.48,7.87,5.23,1.14.98,1.2,3.09.96,4.32-.09.55-.17.82-.53,1.17-.8.76-3.78,3.53-5.99,5.44-1.4,1.16-2.02,1.89-3.35,2.03-.73.08-1.69.07-2.05-.27-1.29-1.03-3.16-4.39-5.28-3.37ZM150.68,181.85h-.01s3.4-7.47,3.54-11.35c.1-2.72-1.47-5.5-2.97-7.47-.84-.91-.23-.76.48-.67,2.24.36,5.4,1.78,6.87,3.52.64.65,1.39,1.35,1.29,2.35-1.38,5.49-9.53,13.99-9.2,13.62ZM174.61,176.4c-.56.95-2.77,4.38-6.56,6.53-.98.56-2.22,1.11-3.21,1.39l-.15.04h.02c-3.32.93-7.6,1.37-10.87,1.05-.2-.02-.46-.02-.36-.1.54-.28,11.7-5.1,12.47-8.35.21-1.26-.76-2.71-1.58-3.67-.51-.56-.76-.54-.81-1.12-.04-.71-.06-2.42,0-3.1.03-.12.1-.23.25-.16.9.12,7.93,3.31,10.61,6.8.2.29.3.44.19.69ZM176.4,175c-.31-.02-1.36-1.16-1.83-1.59-9.4-8.99-22.13-12.65-23.75-13.38l-.02-.03h-.02,0s-.1-.13.51-.17c.98.02,2.66.26,3.92.47,6.65.98,12.33,4.06,14.23,4.64,2.76.65,1.92-9.77,1.95-11.96-.04-.79-.1-1.09.35-1.61,1.3-1.5,2.45-10.29,2.89-14.34.17-1.28.19-2.53.28-1.34.33,4.23.42,14.12-1.79,16.7.07.34.24.53.43,1.11,1.45,3.88.95,13.64,1.05,16.12.58,1.4,2.19,4.46,1.8,5.38ZM181.77,168.35l-.03.08h-.02c-.22,1.53,0,4.94-.11,6.32-.03.23-.07.4-.31.33-.94-.53-2.37-1.77-3.17-2.5-.16-.2-.35-.4-.44-.63-.38-2,0-4.47-.35-6.74-.46-5.43-1.66-9.49-1.92-10.45-.04-.76.16-1.27.34-2.39,1.99-10.28.53-22.34.57-23.75,1.86,1.28,5.91,4.43,8.32,6.2,1.17.83,1.71,1.49,2.21,1.11,3.21-3.46,8.34-13.96,8.77-16.77,0-.17-.14-.16-.36-.22-2.78-.2-5.58-.57-8.32-1.52-4.31-1.44-6.46-3.37-6.81-3.7-1.55-1.86-4.49-5.57-6.31-7.81-.75-.93-1.13-1.39-.57-.72,1.83,2.19,10.63,11.98,14.17,5.75.82-1.78-1.6-3.36-2.74-3.9-.65-.31-.07-.31.28-.35,6.65.09,12.69-6.05,13.77-7.74.06-.05.1-.08.15-.05.42,1.14.09,3.01-.17,4.25-.4,1.58-.4,1.36-1.28,2.7-1.35,2.26-3.53,4.89-3.67,7.55.35,2.15,3.28,2.67,4.84,3.5.64.62.31,2.88.31,3.7-1.92,8.18-9.17,38.14-9.86,40.99-1.69,1.79-5.79,4.98-7.29,6.76ZM219.19,124.85c-.96,1.54-10.27,13.87-11.82,16.63l-.03.11h0c-1.11,5.14-5.08,15.16-5.82,16.94-.2.49-.36.52-.87.95-2.61,2.12-13.12,10.74-14.48,11.83-.19.14-.16.02-.11-.16.46-1.31,1.94-5.27,2.37-6.35.19-.43.21.09.22.95.03.96-.02,1.69.65,1.24.83-.58,2.98-2.32,4.03-3.12.57-.49.79-.53.92-1.01.18-1.79,1.42-16.85,1.78-21,.04-1.58.38-1.43,1.25-2.5,3.33-3.8,11.56-13.12,12.69-14.44.42-.71.24-1.49.36-2.47.13-1.37.12-3.61.4-4.73.5-1.47,2.51-3.13,2.79-4.79.06-.87.06-3.32.06-5.12-.18-1.47.42-3.54,1.91-3.54,3.65,2.14,3.58,16.94,3.83,19.73,0,.45.06.55-.12.85Z"/>
    <path class="cls-1" d="M145.41,132.7c-3.28,2.74-3.47,2.29-.71,5.11.29.52.28.52.25.98-.18.95-1.54,2.41-1.31,3.34.35,1.05,1.4.8,2.37.56,1.77-1.9,3.98-5.02,3.23-6.79s-2.73-3.56-3.83-3.19h0Z"/>
    <path class="cls-1" d="M153.86,141.9c.7,1.58,3.56,2.07,4.03.23,0-.94-1.2-1.77-1.58-2.52-.24-.29-.75-1.46-.67-1.46,0,0,3.38-1.4,3.12-2.92s-3.73-2.9-3.73-2.9c-1.35.17-2.47.97-2.87,2.12-.05,1.4-.2,3.3.2,4.64.49,1.08.92,1.54,1.5,2.81h0Z"/>
  </g>
</svg>